<svg xmlns="http://www.w3.org/2000/svg" xmlns:xlink="http://www.w3.org/1999/xlink" width="581.33" height="362.17" viewBox="0 0 581.33 362.17"><defs><linearGradient id="a" x1="-229.12" y1="30.4" x2="359.88" y2="-338.6" gradientTransform="matrix(1, 0, 0, -1, 0, 74)" gradientUnits="userSpaceOnUse"><stop offset="0"/><stop offset="0.55" stop-color="#fff"/><stop offset="1" stop-opacity="0"/></linearGradient></defs><path d="M395.54,500.47c-34,1.5-97.5-15.4-79.5-95C338.54,306,332.54,303,191,285S19,205,49,162.47c25.26-35.76,123.5-38.5,112,54S-59,341-149.46,188" transform="translate(185.77 -138.89)" fill="none" stroke="url(#a)"/><path d="M-145.2,152.65l3,.49-4.42,26.77a8.62,8.62,0,0,1,1.12.49l16.57-20,2.31,1.91-16.52,19.93a8.53,8.53,0,0,1,.82,1.08l24.71-9.9,1.12,2.78-24.68,9.89a8.32,8.32,0,0,1,.19,2.29l26.66,4.76-.53,2.95-26.82-4.79a8.32,8.32,0,0,1-.7,1.28l21.35,17.22-1.88,2.34-21.54-17.38a9.31,9.31,0,0,1-1.16.72L-135,221.55l-2.77,1.13-10.76-26.31a8.49,8.49,0,0,1-.88,0L-154,224.18l-3-.49,4.59-27.76a8.36,8.36,0,0,1-1.54-.73l-18.7,22.56-2.31-1.92,18.75-22.62a8.64,8.64,0,0,1-.61-.88L-183.37,203l-1.11-2.78,26.62-10.67a8.45,8.45,0,0,1-.14-1.14l-27.77-5,.53-3,27.6,4.93c.11-.33.23-.65.37-1L-179,166.94l1.88-2.33L-155.58,182a7.67,7.67,0,0,1,.86-.76L-165,156l2.78-1.14L-152,179.81a8.52,8.52,0,0,1,2.43-.39Z" transform="translate(185.77 -138.89)" fill="#83a17d" fill-rule="evenodd"/></svg>