<svg version="1.1" id="Layer_1" xmlns="http://www.w3.org/2000/svg" xmlns:xlink="http://www.w3.org/1999/xlink" x="0px" y="0px"
	 viewBox="0 0 496.64 459.08" enable-background="new 0 0 496.64 459.08" xml:space="preserve">
<g>
	
		<linearGradient id="SVGID_1_" gradientUnits="userSpaceOnUse" x1="-10.3302" y1="581.5057" x2="482.7791" y2="96.0067" gradientTransform="matrix(1 0 0 -1 0 460.0756)">
		<stop  offset="0" style="stop-color:#000000"/>
		<stop  offset="0.5532" style="stop-color:#FFFFFF"/>
		<stop  offset="1" style="stop-color:#000000;stop-opacity:0"/>
	</linearGradient>
	<path fill="none" stroke="url(#SVGID_1_)" d="M496.64,459.08c-33.3-5.93-91.19-36.24-56.3-109.99
		c43.6-92.19,38.44-96.42-94.85-144.77C212.2,155.96,194.84,86.58,234.59,53.88c33.8-27.8,128.2-10.7,96.8,77.06
		C299.99,218.7,90.77,204.56,36.5,35.58"/>
	<path fill-rule="evenodd" clip-rule="evenodd" fill="#83A17D" d="M40.88,0l3.02,0.49l-4.45,26.98c0.39,0.14,0.76,0.3,1.13,0.49
		l16.7-20.15l2.33,1.92L42.96,29.82c0.3,0.34,0.58,0.7,0.83,1.09l24.9-9.98l1.13,2.8L44.94,33.7c0.17,0.76,0.23,1.53,0.19,2.31
		L72,40.8l-0.53,2.97l-27.03-4.83c-0.2,0.45-0.43,0.88-0.71,1.29l21.51,17.35l-1.89,2.36L41.65,42.43
		c-0.37,0.27-0.76,0.51-1.17,0.73l10.68,26.27l-2.79,1.14L37.53,44.06c-0.3,0.02-0.59,0.02-0.89,0l-4.63,28.02l-3.02-0.49
		l4.63-27.97c-0.54-0.19-1.06-0.44-1.55-0.74L13.22,65.61l-2.33-1.93l18.89-22.79c-0.22-0.28-0.43-0.58-0.61-0.89L2.42,50.74
		l-1.12-2.8l26.82-10.75c-0.07-0.38-0.12-0.76-0.14-1.15L0,31l0.53-3.02l27.81,4.97c0.11-0.33,0.23-0.65,0.37-1.01L6.82,14.4
		l1.89-2.35l21.71,17.52c0.27-0.28,0.56-0.53,0.87-0.77L20.93,3.38l2.8-1.15l10.3,25.14c0.79-0.25,1.62-0.38,2.45-0.39L40.88,0z"/>
</g>
</svg>
