<svg xmlns="http://www.w3.org/2000/svg" width="145" height="20" viewBox="0 0 145 20"><path d="M32,17.3V2.7h3.51l3.83,11.16L43.25,2.7h3.49V17.3H44.25V5.85L40.4,17.3h-2L34.53,5.92V17.3Z" transform="translate(0)"/><path d="M56.09,17.5a6.66,6.66,0,0,1-3.49-.89,5.91,5.91,0,0,1-2.27-2.56,9.33,9.33,0,0,1-.8-4,9.32,9.32,0,0,1,.81-4A6,6,0,0,1,52.62,3.4a6.57,6.57,0,0,1,3.47-.9,6.37,6.37,0,0,1,3.44.9A6,6,0,0,1,61.8,6a9.47,9.47,0,0,1,.79,4,9.48,9.48,0,0,1-.78,4,5.88,5.88,0,0,1-2.26,2.56A6.55,6.55,0,0,1,56.09,17.5Zm0-2.06a3.67,3.67,0,0,0,2-.55,3.52,3.52,0,0,0,1.31-1.75,8.56,8.56,0,0,0,.47-3.08,8.86,8.86,0,0,0-.47-3.13,3.7,3.7,0,0,0-1.32-1.8,3.94,3.94,0,0,0-4.1,0,3.78,3.78,0,0,0-1.33,1.8,8.61,8.61,0,0,0-.47,3.12,8.35,8.35,0,0,0,.47,3.08A3.67,3.67,0,0,0,54,14.89,3.75,3.75,0,0,0,56.09,15.44Z" transform="translate(0)"/><path d="M65.38,2.7h3.93a9.86,9.86,0,0,1,4.33.92,5.38,5.38,0,0,1,2.45,2.45,8.63,8.63,0,0,1,.79,3.83,8.71,8.71,0,0,1-.84,4,5.68,5.68,0,0,1-2.54,2.52,9.55,9.55,0,0,1-4.34.87H65.38Zm2.49,2V15.27H69.2a6.33,6.33,0,0,0,2.65-.52,3.82,3.82,0,0,0,1.8-1.69,6.5,6.5,0,0,0,.65-3.13,6.54,6.54,0,0,0-.6-3A3.55,3.55,0,0,0,72,5.25a6.34,6.34,0,0,0-2.7-.52Z" transform="translate(0)"/><path d="M90.9,12a7.1,7.1,0,0,1-.57,3,4,4,0,0,1-1.8,1.89,6.9,6.9,0,0,1-3.25.66A6.79,6.79,0,0,1,82,16.83a4,4,0,0,1-1.79-1.93,7.69,7.69,0,0,1-.56-3.07V2.7h2.52v9.38a3.36,3.36,0,0,0,.82,2.5,3.14,3.14,0,0,0,2.27.81A3.73,3.73,0,0,0,86.94,15,2.47,2.47,0,0,0,88,14a4,4,0,0,0,.39-1.88V2.7H90.9Z" transform="translate(0)"/><path d="M94.1,2.7h2.48V15.18h6.59V17.3H94.09Z" transform="translate(0)"/><path d="M105,17.3,110.2,2.7h2.66l5.24,14.6h-2.47l-1.3-3.67h-5.57l-1.33,3.67Zm4.37-5.85h4.41l-2.2-6.36Z" transform="translate(0)"/><path d="M131.47,17.3H128.9l-2.51-5.93H123V17.3h-2.46V2.7h5.93a6.27,6.27,0,0,1,2.75.53,3.46,3.46,0,0,1,1.62,1.46,4.45,4.45,0,0,1,.52,2.2,4.47,4.47,0,0,1-.38,2,3.92,3.92,0,0,1-1,1.29,5.88,5.88,0,0,1-1.3.81Zm-5.56-7.88a3.29,3.29,0,0,0,2.17-.64,2.18,2.18,0,0,0,.79-1.8,2.14,2.14,0,0,0-.73-1.74,2.85,2.85,0,0,0-1.91-.62H123v4.8Z" transform="translate(0)"/><path d="M139.3,17.5a8.39,8.39,0,0,1-2.07-.26,6.62,6.62,0,0,1-1.84-.8A5,5,0,0,1,134,15.12a4,4,0,0,1-.67-1.86h2.55a2.53,2.53,0,0,0,.63,1.24,3.1,3.1,0,0,0,1.18.77,4.66,4.66,0,0,0,1.57.26,5.17,5.17,0,0,0,1.63-.24,2.63,2.63,0,0,0,1.16-.71,1.61,1.61,0,0,0,.44-1.14,1.65,1.65,0,0,0-.32-1,2.23,2.23,0,0,0-.87-.67,5.44,5.44,0,0,0-1.31-.44l-2.68-.58a5,5,0,0,1-2.58-1.3,3.51,3.51,0,0,1-1-2.55,3.75,3.75,0,0,1,.69-2.3,4.58,4.58,0,0,1,1.95-1.52,6.71,6.71,0,0,1,2.79-.55,6.94,6.94,0,0,1,3.05.6,4.31,4.31,0,0,1,1.89,1.57,4,4,0,0,1,.66,2.17h-2.48a2.54,2.54,0,0,0-.53-1.38,2.31,2.31,0,0,0-1.09-.74,4.54,4.54,0,0,0-1.47-.22,4.48,4.48,0,0,0-1.13.14,2.86,2.86,0,0,0-.92.41,2.07,2.07,0,0,0-.62.67,1.82,1.82,0,0,0-.21.88,1.52,1.52,0,0,0,.46,1.15,4.26,4.26,0,0,0,1.77.74l2.62.58a5.56,5.56,0,0,1,2,.73,3.57,3.57,0,0,1,1.14,1.11,3.62,3.62,0,0,1,.53,1.26,6,6,0,0,1,.13,1.23,3.35,3.35,0,0,1-.71,2.07,4.7,4.7,0,0,1-2,1.48A7.83,7.83,0,0,1,139.3,17.5Z" transform="translate(0)"/><path d="M20.25,10.12A10.12,10.12,0,0,1,12.35,20l-2.23-9.88Z" transform="translate(0)" fill="#143c3c"/><path d="M7.18.44A10.13,10.13,0,0,1,18.93,5.12l-8.81,5Z" transform="translate(0)" fill="#143c3c"/><path d="M4.68,18.66A10.12,10.12,0,0,1,.6,6.69l9.52,3.43Z" transform="translate(0)" fill="#143c3c"/><circle cx="10.12" cy="10.12" r="2.66" fill="#83a17d"/></svg>