<svg width="73" height="73" viewBox="0 0 73 73" fill="none" xmlns="http://www.w3.org/2000/svg">
<path fill-rule="evenodd" clip-rule="evenodd" d="M39.7679 72.7412L36.7721 72.899L35.3451 45.8046C34.9339 45.7535 34.5312 45.6728 34.1394 45.5647L22.2508 68.6569L19.5835 67.2837L31.4339 44.2659C31.0684 44.0022 30.7244 43.71 30.4052 43.3923L8.40032 58.3708L6.71222 55.8909L28.6844 40.9346C28.3671 40.2483 28.1381 39.511 28.0129 38.7366L0.950119 39.8142L0.830771 36.8165L28.06 35.7324C28.1539 35.2515 28.2887 34.7844 28.4606 34.3351L3.91138 22.104L5.2492 19.4189L30.0174 31.759C30.3181 31.4168 30.646 31.0987 30.998 30.8082L14.9949 7.6507L17.4629 5.94516L33.6255 29.3335C33.899 29.2391 34.179 29.1582 34.4649 29.0916L32.9853 0.99864L35.9811 0.840857L37.4607 28.9338C38.0361 29.0053 38.5948 29.1347 39.1304 29.3163L52.5403 3.26921L55.2076 4.64241L41.7574 30.7677C42.0362 30.9939 42.3006 31.2376 42.5488 31.4972L66.2318 15.3764L67.9199 17.8564L44.2079 33.9969C44.358 34.3443 44.4857 34.7039 44.5892 35.0743L72.7738 33.9521L72.8931 36.9497L44.8754 38.0653C44.8473 38.4123 44.7982 38.754 44.7293 39.0888L69.6937 51.5266L68.3559 54.2118L43.6072 41.8814C43.4042 42.2049 43.18 42.514 42.9363 42.8067L58.3958 65.1777L55.9278 66.8833L40.6297 44.7459C39.9258 45.15 39.157 45.4567 38.3409 45.6468L39.7679 72.7412Z" fill="#83A17D"/>
</svg>
